<?xml version="1.0" encoding="UTF-8" standalone="no"?>
<svg
   xmlns:dc="http://purl.org/dc/elements/1.1/"
   xmlns:cc="http://creativecommons.org/ns#"
   xmlns:rdf="http://www.w3.org/1999/02/22-rdf-syntax-ns#"
   xmlns:svg="http://www.w3.org/2000/svg"
   xmlns="http://www.w3.org/2000/svg"
   xmlns:sodipodi="http://sodipodi.sourceforge.net/DTD/sodipodi-0.dtd"
   xmlns:inkscape="http://www.inkscape.org/namespaces/inkscape"
   id="1505c554-5c38-4a77-999f-b8b9c5ae0b21"
   data-name="Слой 1"
   viewBox="0 0 716.9196 682.3234"
   version="1.1"
   sodipodi:docname="poop_emoji.svg"
   inkscape:version="1.0.1 (3bc2e813f5, 2020-09-07)">
  <metadata
     id="metadata37">
    <rdf:RDF>
      <cc:Work
         rdf:about="">
        <dc:format>image/svg+xml</dc:format>
        <dc:type
           rdf:resource="http://purl.org/dc/dcmitype/StillImage" />
        <dc:title>Poop_emoji</dc:title>
      </cc:Work>
    </rdf:RDF>
  </metadata>
  <defs
     id="defs35" />
  <sodipodi:namedview
     pagecolor="#ffffff"
     bordercolor="#666666"
     borderopacity="1"
     objecttolerance="10"
     gridtolerance="10"
     guidetolerance="10"
     inkscape:pageopacity="0"
     inkscape:pageshadow="2"
     inkscape:window-width="2560"
     inkscape:window-height="1404"
     id="namedview33"
     showgrid="false"
     inkscape:zoom="1.2296222"
     inkscape:cx="304.08365"
     inkscape:cy="321.65663"
     inkscape:window-x="0"
     inkscape:window-y="36"
     inkscape:window-maximized="0"
     inkscape:current-layer="1505c554-5c38-4a77-999f-b8b9c5ae0b21" />
  <title
     id="title2">Poop_emoji</title>
  <g
     id="g10"
     transform="matrix(2.1988221,0,0,2.1988221,-1.8426318,-10.920558)">
    <path
       d="m 301.91709,251.6815 c 2.3157,-8.5144 5.9174,-27.2932 -1.922,-42.3371 -5.19609,-9.9759 -14.6765,-16.7811 -28.1767,-20.2283 a 3.38743,3.38743 0 0 1 -1.848,-5.3393 71.84334,71.84334 0 0 0 0.533,-9.6037 l 0.007,-0.3976 c 0.11239,-4.8911 -0.0396,-10.5883 -2.03311,-15.7778 -2.7467,-7.1444 -8.4076,-11.7535 -12.672,-14.3615 a 41.47405,41.47405 0 0 0 -9.0288,-4.1036 c -0.7929,-0.2181 -6.3856,-1.2489 -9.0728,-1.7445 -2.93829,-0.5413 -4.3535,-0.8076 -5.0626,-1.8441 a 217.38807,217.38807 0 0 1 -78.0815,43.957 c 6.7373,8.6253 10.9556,20.7231 10.9556,34.1307 a 57.74478,57.74478 0 0 1 -7.5329,29.0621 c 13.3078,-3.6306 27.835,-8.451 42.4777,-19.4664 a 62.68405,62.68405 0 0 1 -0.735,-9.5957 c 0,-26.1183 15.93641,-47.3665 35.5249,-47.3665 19.58849,0 35.5248,21.2482 35.5248,47.3665 0,26.1183 -15.9364,47.3665 -35.5248,47.3665 -15.806,0 -29.22149,-13.8428 -33.8179,-32.9074 -15.59459,11.1865 -34.65959,17.9155 -48.52759,21.6778 -6.1919,6.9911 -14.184,11.2296 -22.9141,11.2296 a 28.11015,28.11015 0 0 1 -14.7804,-4.3493 c -27.3514,2.6645 -52.7403,2.792 -57.2252,2.792 -0.4075,0 -0.6242,-8e-4 -0.6728,-10e-4 -6.3508,3.3434 -19.517,11.4191 -21.125,12.6983 a 42.34255,42.34255 0 0 0 -13.8064,35.2352 41.89932,41.89932 0 0 0 21.1876,32.0017 c 8.8277,4.8605 18.8595,6.6432 29.3327,6.7314 34.7011,-5.1201 196.7456,-32.1945 229.01669,-94.825 z m -65.357,27.7368 c -10.8196,19.5554 -34.0557,32.4499 -57.6706,32.451 q -2.32274,0 -4.6477,-0.1685 a 61.48645,61.48645 0 0 1 -7.6059,-1.0352 c -20.9166,-4.1961 -35.7715,-18.3627 -44.5492,-29.5072 -1.9824,-2.5165 -2.7533,-5.152 -2.1718,-7.423 a 6.02836,6.02836 0 0 1 4.1014,-4.238 10.4732,10.4732 0 0 1 4.0375,-0.1277 c 32.8067,3.3877 62.3425,3.7445 90.2967,1.1013 1.59251,-0.1509 3.1939,-0.3722 4.7974,-0.5936 2.2754,-0.3128 4.63011,-0.6377 6.9517,-0.7577 3.12341,-0.1476 5.75341,0.9868 6.9627,3.0749 1.1344,1.9626 0.9515,4.5948 -0.5022,7.2237 z"
       transform="translate(-16.54021,-33.8383)"
       style="fill:#8d633a"
       id="path4" />
    <path
       d="m 301.996,260.3752 c 0.0855,0.0488 0.16369,0.1065 0.25469,0.1485 25.71631,11.8471 38.2385,26.3122 37.2231,42.9931 -1.13,18.5664 -20.822,34.0083 -39.6879,39.6659 -18.2206,5.4637 -38.1571,4.5606 -57.4416,3.6906 -3.74229,-0.1697 -7.4627,-0.3371 -11.1411,-0.4582 a 605.05358,605.05358 0 0 1 -67.4924,-6.129 c -2.3767,-0.348 -4.8723,-0.8766 -7.5134,-1.4372 -3.2535,-0.6903 -6.5615,-1.3609 -9.868,-1.775 57.56461,-13.7224 129.5531,-37.948 155.66661,-76.6987 z M 94.4651,214.0317 c 0,-26.1183 15.9364,-47.3665 35.5248,-47.3665 8.0006,0 15.3668,3.5871 21.3118,9.5604 0.0454,-0.017 0.0776,-0.0526 0.1247,-0.0668 43.8536,-13.214 72.7619,-38.4144 79.9962,-45.2129 -2.3337,-11.8882 -5.1844,-23.9397 -9.6557,-33.5858 A 97.11114,97.11114 0 0 0 190.0967,59.0896 C 175.374,48.607 151.737,37.3326 145.6378,43.4472 c -1.0595,1.0628 -1.3635,3.2181 -0.8172,5.7677 0.2819,1.315 0.5903,2.6113 0.8943,3.8933 1.9758,8.314 4.0177,16.9111 -2.2049,25.8319 a 64.25536,64.25536 0 0 1 -4.0155,5.0376 c -2.8128,3.2875 -5.2424,6.1278 -5.9825,10.2391 -1.0925,6.0607 -0.007,13.1996 0.9516,19.4982 a 3.2796,3.2796 0 0 1 -0.0197,0.7094 c 6.7027,0.663 23.8433,-0.5128 37.5071,-8.0058 a 2.25544,2.25544 0 1 1 2.1675,3.956 c -11.5729,6.347 -26.1723,8.6709 -35.6328,8.672 a 27.08441,27.08441 0 0 1 -8.1205,-0.9278 c -5.8445,2.3404 -24.3537,10.8981 -32.6776,28.1893 -5.5882,11.6059 -5.6058,25.0786 -0.0507,40.0436 a 3.38536,3.38536 0 0 1 -2.5154,4.4968 c -0.1696,0.0341 -17.6435,3.7214 -27.4675,19.1633 -7.238,11.3769 -8.6851,26.31 -4.2974,44.3841 v 0.002 a 3.35317,3.35317 0 0 1 0.0797,0.8909 c 8.9956,-0.1156 26.8656,-0.5647 46.4211,-2.2746 -9.2864,-8.5529 -15.3923,-22.8282 -15.3923,-38.9827 z"
       transform="translate(-16.54021,-33.8383)"
       style="fill:#754c29"
       id="path6" />
    <path
       d="m 147.0955,214.5955 c 0,13.3913 -7.5739,24.2471 -16.9166,24.2471 -9.3427,0 -16.9166,-10.8558 -16.9166,-24.2471 0,-13.3913 7.5738,-24.2472 16.9166,-24.2472 9.3428,0 16.9166,10.856 16.9166,24.2472 z m 88.3422,24.2471 c 9.3428,0 16.9166,-10.8558 16.9166,-24.2471 0,-13.3913 -7.5738,-24.2472 -16.9166,-24.2472 -9.3428,0 -16.9166,10.856 -16.9166,24.2472 0,13.3912 7.5739,24.2471 16.91659,24.2471 z m 1.1224,40.5757 c -10.8196,19.5554 -34.0557,32.4499 -57.6706,32.451 q -2.32274,0 -4.6477,-0.1685 a 61.46329,61.46329 0 0 1 -7.6058,-1.0353 c -20.9167,-4.196 -35.7716,-18.3626 -44.5493,-29.5071 -1.9824,-2.5166 -2.7534,-5.152 -2.1719,-7.423 a 6.02873,6.02873 0 0 1 4.1014,-4.238 10.47377,10.47377 0 0 1 4.0376,-0.1277 c 32.8067,3.3877 62.3425,3.7445 90.2967,1.1013 1.5926,-0.1509 3.1939,-0.3722 4.79751,-0.5936 2.27529,-0.3128 4.63,-0.6377 6.95159,-0.7577 3.12341,-0.1476 5.7533,0.9868 6.9627,3.0749 1.13439,1.9626 0.95149,4.5948 -0.50221,7.2237 z m -1.4494,-6.0948 c -0.912,-1.5771 -3.0948,-2.0496 -4.8965,-1.9505 -2.2248,0.1146 -4.5288,0.4318 -6.7579,0.739 -1.6366,0.2258 -3.2688,0.4505 -4.89429,0.6035 -28.104,2.6609 -57.7852,2.2985 -90.7417,-1.1013 a 17.37515,17.37515 0 0 0 -1.7622,-0.1222 5.147,5.147 0 0 0 -1.4207,0.1729 3.78841,3.78841 0 0 0 -2.5375,2.6288 c -0.544,2.1257 0.8679,4.3383 1.7577,5.4682 8.5443,10.8483 22.9785,24.6315 43.2233,28.6921 a 59.21311,59.21311 0 0 0 7.3239,0.9979 c 23.9321,1.7412 49.2387,-11.3483 60.1817,-31.1261 1.04618,-1.8899 1.24008,-3.76 0.52418,-5.0023 z m 33.4084,-59.2919 c 0,24.9141 -14.8952,45.1109 -33.2694,45.1109 -15.0366,0 -27.7303,-13.5333 -31.8503,-32.1015 -0.2793,-1.2584 -0.5291,-2.5342 -0.72739,-3.8362 a 60.90648,60.90648 0 0 1 -0.69161,-9.1732 c 0,-24.914 14.8953,-45.111 33.2693,-45.111 18.37419,0 33.26939,20.197 33.26939,45.111 z m -2.2559,1e-4 c 0,-23.6304 -13.912,-42.8554 -31.0137,-42.8554 -17.1017,0 -31.0138,19.225 -31.0138,42.8554 0,23.6304 13.9121,42.8553 31.0138,42.8553 17.1017,0 31.01369,-19.2249 31.01369,-42.8553 z m -103.003,-1e-4 a 54.82739,54.82739 0 0 1 -8.4376,29.9489 40.0807,40.0807 0 0 1 -4.9166,6.1255 c -5.5564,5.6492 -12.4357,9.0365 -19.9151,9.0365 a 25.78544,25.78544 0 0 1 -12.5948,-3.3689 30.88492,30.88492 0 0 1 -4.4399,-3.0451 c -9.7114,-7.8779 -16.2346,-22.2364 -16.2346,-38.6969 0,-24.914 14.8952,-45.111 33.2693,-45.111 7.4672,0 14.3361,3.3765 19.888,9.009 q 1.22235,1.24005 2.3537,2.6223 c 6.7554,8.2566 11.0276,20.1768 11.0276,33.4797 z m -2.2565,1e-4 c 0,-23.6304 -13.9122,-42.8554 -31.0138,-42.8554 -17.1016,0 -31.0137,19.225 -31.0137,42.8554 0,23.6304 13.9121,42.8553 31.0137,42.8553 17.1016,0 31.0138,-19.2249 31.0138,-42.8553 z"
       transform="translate(-16.54021,-33.8383)"
       style="fill:#010101"
       id="path8" />
  </g>
</svg>
