<?xml version="1.0" encoding="utf-8"?>
<!-- Generator: Adobe Illustrator 19.2.1, SVG Export Plug-In . SVG Version: 6.00 Build 0)  -->
<svg version="1.1" id="Layer_1" xmlns="http://www.w3.org/2000/svg" xmlns:xlink="http://www.w3.org/1999/xlink" x="0px" y="0px"
	 viewBox="0 0 340.2 170.1" style="enable-background:new 0 0 340.2 170.1;" xml:space="preserve">
<style type="text/css">
	.st0{fill:#D8D8D8;}
	.st1{fill:#F16667;}
	.st2{fill:#FBF49C;}
	.st3{fill:#4A494A;}
	.st4{fill:#999999;}
</style>
<path class="st0" d="M323.4,120.2v-4c0-23.2-26.9-41.2-61.2-43.1c-3.4-0.3-6.4-2.2-8.1-5.1C245.7,53,216,8.5,159.4,8.5
	c-43,0-79.1,25.4-88.9,59.6c-0.3,1.2-1.4,1.9-2.6,2.1c-27,2.8-52.3,2-52.3,45.2v4.8c-1.4,0-2.6,0.4-3.5,1c-0.9,0.6-1.5,1.4-1.5,2.3
	v5c0,3.1,3.8,5.6,8.4,5.6h20c0,0.4,0,0.8,0,1.3c0.7,14.4,12.5,25.9,27.1,25.9c14.6,0,26.5-11.5,27.1-25.9c0-0.4,0-0.8,0-1.3h128.5
	c0,0.4,0,0.8,0,1.3c0.7,14.4,12.6,25.9,27.1,25.9c14.6,0,26.5-11.5,27.1-25.9c0-0.4,0-0.8,0-1.3h41.2c5.9,0,10.6-3.2,10.6-7v-4
	C327.8,121.5,325.8,120.2,323.4,120.2z"/>
<path class="st1" d="M323.4,120v-4c0-23.2-26.9-41.2-61.2-43.1c-3.4-0.3-6.4-2.2-8.1-5.1c-8.4-15-38.1-59.5-94.8-59.5
	c-43,0-79.1,25.4-88.9,59.6c-0.3,1.2-1.4,1.9-2.6,2.1c-27,2.8-52.3,2-52.3,45.2v4.8c-1.4,0-2.6,0.4-3.5,1c-0.9,0.6-1.5,1.4-1.5,2.3
	v5c0,3.1,3.8,5.6,8.4,5.6h20c0-15,12.2-27.2,27.1-27.2c15,0,27.1,12.2,27.1,27.2h128.5c0-15,12.2-27.2,27.1-27.2
	c15,0,27.2,12.2,27.2,27.2h41.2c5.9,0,10.6-3.2,10.6-7v-4C327.8,121.3,325.8,120,323.4,120z M153.9,72.9H76.4c-0.6,0-1-0.6-0.9-1.1
	C84,41.3,117,17.7,153.9,15.5V72.9z M248,72.9h-83.1V15.5c48.1,2.8,75.8,42.1,83.9,56.1C249.1,72.2,248.6,72.9,248,72.9z"/>
<path class="st2" d="M292.4,100.5L292.4,100.5c-4.3,0-7.8-3.5-7.8-7.8v0c0-4.3,3.5-7.8,7.8-7.8h0c4.3,0,7.8,3.5,7.8,7.8v0
	C300.2,97,296.7,100.5,292.4,100.5z"/>
<path class="st3" d="M248.8,106.7c-15,0-27.1,12.2-27.1,27.1c0,0.4,0,0.9,0,1.3c0.7,14.4,12.6,25.9,27.1,25.9
	c14.6,0,26.5-11.5,27.1-25.9c0-0.4,0-0.8,0-1.3C276,118.8,263.8,106.7,248.8,106.7z M266.8,135.1c-0.7,9.3-8.4,16.7-17.9,16.7
	c-9.5,0-17.3-7.4-17.9-16.7c0-0.4,0-0.8,0-1.3c0-9.9,8-18,18-18c9.9,0,18,8,18,18C266.8,134.3,266.8,134.7,266.8,135.1z"/>
<path class="st4" d="M266.8,133.8c0,0.4,0,0.9,0,1.3c-0.7,9.3-8.4,16.7-17.9,16.7c-9.5,0-17.3-7.4-17.9-16.7c0-0.4,0-0.8,0-1.3
	c0-9.9,8-18,18-18C258.8,115.9,266.8,123.9,266.8,133.8z"/>
<path class="st3" d="M66.1,106.7c-15,0-27.1,12.2-27.1,27.1c0,0.4,0,0.9,0,1.3c0.7,14.4,12.5,25.9,27.1,25.9
	c14.6,0,26.5-11.5,27.1-25.9c0-0.4,0-0.8,0-1.3C93.2,118.8,81.1,106.7,66.1,106.7z M84,135.1c-0.6,9.3-8.4,16.7-17.9,16.7
	c-9.5,0-17.3-7.4-17.9-16.7c0-0.4-0.1-0.8-0.1-1.3c0-9.9,8.1-18,18-18s18,8,18,18C84.1,134.3,84,134.7,84,135.1z"/>
<path class="st4" d="M84.1,133.8c0,0.4,0,0.9,0,1.3c-0.6,9.3-8.4,16.7-17.9,16.7c-9.5,0-17.3-7.4-17.9-16.7c0-0.4-0.1-0.8-0.1-1.3
	c0-9.9,8.1-18,18-18S84.1,123.9,84.1,133.8z"/>
<path class="st3" d="M88.2,83.2h-9.8c-1.6,0-2.9-1.3-2.9-2.9v0c0-1.6,1.3-2.9,2.9-2.9h9.8c1.6,0,2.9,1.3,2.9,2.9v0
	C91.2,81.9,89.8,83.2,88.2,83.2z"/>
<path class="st3" d="M177.9,83.2h-9.8c-1.6,0-2.9-1.3-2.9-2.9v0c0-1.6,1.3-2.9,2.9-2.9h9.8c1.6,0,2.9,1.3,2.9,2.9v0
	C180.9,81.9,179.5,83.2,177.9,83.2z"/>
</svg>
